<svg width="800" height="800" viewBox="0 0 800 800" xmlns="http://www.w3.org/2000/svg">
  <!-- Dark theme background pattern -->
  <defs>
    <pattern id="grid-dark" width="40" height="40" patternUnits="userSpaceOnUse">
      <rect width="40" height="40" fill="none"/>
      <rect width="1" height="1" fill="#374151" opacity="0.3"/>
    </pattern>
  </defs>

  <rect width="800" height="800" fill="url(#grid-dark)"/>

  <!-- Animated rectangles -->
  <rect x="100" y="100" width="50" height="50" fill="#4b5563" rx="4"/>
  <rect x="200" y="150" width="60" height="40" fill="#4b5563" rx="4"/>
  <rect x="300" y="120" width="45" height="55" fill="#4b5563" rx="4"/>
  <rect x="150" y="250" width="55" height="45" fill="#4b5563" rx="4"/>
  <rect x="400" y="180" width="50" height="50" fill="#4b5563" rx="4"/>
  <rect x="500" y="220" width="60" height="40" fill="#4b5563" rx="4"/>
  <rect x="250" y="350" width="45" height="55" fill="#4b5563" rx="4"/>
  <rect x="600" y="150" width="50" height="50" fill="#4b5563" rx="4"/>
  <rect x="350" y="300" width="55" height="45" fill="#4b5563" rx="4"/>
  <rect x="450" y="400" width="50" height="50" fill="#4b5563" rx="4"/>
  <rect x="180" y="450" width="60" height="40" fill="#4b5563" rx="4"/>
  <rect x="550" y="380" width="45" height="55" fill="#4b5563" rx="4"/>
  <rect x="320" y="500" width="55" height="45" fill="#4b5563" rx="4"/>
  <rect x="650" y="420" width="50" height="50" fill="#4b5563" rx="4"/>
  <rect x="420" y="550" width="60" height="40" fill="#4b5563" rx="4"/>
  <rect x="220" y="600" width="45" height="55" fill="#4b5563" rx="4"/>
  <rect x="520" y="580" width="50" height="50" fill="#4b5563" rx="4"/>
  <rect x="380" y="650" width="55" height="45" fill="#4b5563" rx="4"/>
</svg>
